Coordinates
version=1
nRows=22
nColumns=24
inDegrees=yes

Units are S.I. units (second, meters, Newtons, ...)
Angles are in degrees.

endheader
time	pelvis_tilt	pelvis_list	pelvis_rotation	pelvis_tx	pelvis_ty	pelvis_tz	hip_flexion_r	hip_adduction_r	hip_rotation_r	knee_angle_r	ankle_angle_r	subtalar_angle_r	mtp_angle_r	hip_flexion_l	hip_adduction_l	hip_rotation_l	knee_angle_l	ankle_angle_l	subtalar_angle_l	mtp_angle_l	lumbar_extension	lumbar_bending	lumbar_rotation
      0.53316667	     -6.95566753	      1.76233908	      2.50809794	     -0.40132180	      1.06230750	      0.33543701	     19.10133477	      0.68910316	     -3.18624733	    -20.45204583	     10.16709756	     -4.26621592	      5.39968654	     20.92194131	     -2.34123912	     -4.27282406	    -68.51102809	      5.64483245	      3.63931193	      3.81292090	    -10.80058216	      3.97609011	      1.11662327
      0.53733333	     -6.92586101	      1.85998941	      2.45493347	     -0.39616875	      1.06332615	      0.33581063	     18.60439146	      0.61865519	     -3.21233220	    -20.12275807	     10.26824813	     -4.09739564	      5.38565721	     21.39582269	     -2.23813601	     -4.34951143	    -68.18646134	      5.99360902	      3.94283730	      3.83394196	    -10.86938262	      3.81881458	      1.28428430
      0.54150000	     -6.89136688	      1.94296592	      2.38891848	     -0.39100615	      1.06432962	      0.33619400	     18.09985630	      0.56813724	     -3.22880111	    -19.78343713	     10.35576243	     -3.94017565	      5.37216564	     21.84748867	     -2.15490617	     -4.43455432	    -67.80564395	      6.33966643	      4.23978839	      3.85719306	    -10.94419703	      3.67373764	      1.45811053
      0.54566667	     -6.86404977	      2.03368089	      2.31040151	     -0.38584638	      1.06528586	      0.33658355	     17.60624243	      0.51175844	     -3.22782162	    -19.44768877	     10.44682210	     -3.78510891	      5.35780506	     22.29173378	     -2.06934500	     -4.54277391	    -67.37284299	      6.66293285	      4.51638770	      3.88342273	    -11.00968190	      3.52036818	      1.65013673
      0.54983333	     -6.83227324	      2.12023495	      2.21912284	     -0.38069467	      1.06618873	      0.33698892	     17.11247539	      0.46225555	     -3.22102805	    -19.11655488	     10.54241778	     -3.63769373	      5.34188213	     22.71904334	     -1.99658581	     -4.66979457	    -66.89764249	      6.97875423	      4.77618397	      3.91394659	    -11.07524329	      3.36693197	      1.86335684
      0.55400000	     -6.80644959	      2.21229297	      2.11897442	     -0.37555117	      1.06706088	      0.33739551	     16.62794279	      0.40751881	     -3.20177870	    -18.78769709	     10.62465129	     -3.49361803	      5.32591312	     23.13659118	     -1.91890996	     -4.80650628	    -66.36709067	      7.28566562	      5.01035648	      3.94628390	    -11.13465147	      3.20393448	      2.06498296
      0.55816667	     -6.78197614	      2.29462836	      2.01487861	     -0.37040710	      1.06788676	      0.33779965	     16.14405976	      0.36408600	     -3.17428020	    -18.45364084	     10.69990817	     -3.36360012	      5.31152520	     23.54456482	     -1.85634854	     -4.95296269	    -65.79477483	      7.57799678	      5.21962558	      3.97892407	    -11.19548964	      3.05474568	      2.26140589
      0.56233333	     -6.75595769	      2.38990459	      1.89903300	     -0.36527883	      1.06867617	      0.33820731	     15.66581007	      0.30714292	     -3.13304770	    -18.13012744	     10.76922983	     -3.23704030	      5.30213740	     23.93263246	     -1.78067610	     -5.11084534	    -65.16689477	      7.86118359	      5.40168615	      4.00566640	    -11.25770215	      2.90334915	      2.42928177
      0.56650000	     -6.75303328	      2.46101747	      1.78044700	     -0.36015154	      1.06935899	      0.33862303	     15.21207222	      0.27690685	     -3.08857316	    -17.80185873	     10.81918707	     -3.11743478	      5.29654436	     24.34217856	     -1.73936884	     -5.27911962	    -64.51626468	      8.14787430	      5.55749624	      4.02591813	    -11.29327668	      2.75002273	      2.56944208
      0.57066667	     -6.71117232	      2.54116590	      1.65736377	     -0.35504034	      1.07009025	      0.33903058	     14.71721260	      0.23669237	     -3.03773079	    -17.47301471	     10.92383797	     -2.99974443	      5.28654314	     24.68953081	     -1.68654572	     -5.44619351	    -63.80137758	      8.38666616	      5.71372350	      4.05630707	    -11.37835664	      2.60174612	      2.85544449
      0.57483333	     -6.72057165	      2.62350949	      1.52515485	     -0.34993285	      1.07066482	      0.33943540	     14.28989659	      0.19301571	     -2.97340204	    -17.16730624	     10.98923192	     -2.89176499	      5.27953937	     25.08008776	     -1.63394516	     -5.62814989	    -63.04937077	      8.63053439	      5.83085974	      4.07933125	    -11.39592851	      2.46089745	      3.02559174
      0.57900000	     -6.71382767	      2.69270313	      1.39907871	     -0.34483128	      1.07123486	      0.33983260	     13.83818820	      0.16181195	     -2.91166140	    -16.84437504	     11.07134069	     -2.78635319	      5.27187977	     25.44271712	     -1.59418522	     -5.79885280	    -62.25644489	      8.84759026	      5.91703398	      4.10356133	    -11.43702388	      2.31161992	      3.24626035
      0.58316667	     -6.72463480	      2.76946253	      1.26400020	     -0.33974051	      1.07171934	      0.34022688	     13.41836865	      0.12137041	     -2.84546425	    -16.54639200	     11.13193415	     -2.68620124	      5.26781583	     25.80778925	     -1.54674419	     -5.98017023	    -61.41657815	      9.05949952	      5.97510437	      4.11859028	    -11.45329965	      2.18318597	      3.38084821
      0.58733333	     -6.71865857	      2.83397626	      1.13775360	     -0.33465861	      1.07218162	      0.34061012	     12.97477385	      0.09222575	     -2.78288153	    -16.23657963	     11.22910281	     -2.58316579	      5.26175600	     26.14562490	     -1.51042130	     -6.14891155	    -60.54077001	      9.23837661	      6.01569489	      4.13672363	    -11.49803006	      2.03973764	      3.61689562
      0.59150000	     -6.75307865	      2.88891459	      1.00845696	     -0.32957649	      1.07252270	      0.34098327	     12.58172035	      0.07227906	     -2.71194190	    -15.93919754	     11.30613351	     -2.49852143	      5.25612176	     26.51501216	     -1.48362404	     -6.31657656	    -59.62794447	      9.40681035	      6.03407585	      4.15014169	    -11.48877390	      1.92211440	      3.78983062
      0.59566667	     -6.77863321	      2.94828591	      0.87985495	     -0.32451404	      1.07282681	      0.34134193	     12.18551281	      0.04451931	     -2.64539400	    -15.65282506	     11.37210745	     -2.41136822	      5.25360140	     26.86013724	     -1.44950704	     -6.48210541	    -58.67112606	      9.56353818	      6.03112704	      4.15645469	    -11.49024132	      1.81411451	      3.90244512
      0.59983333	     -6.78664408	      3.00205982	      0.75846026	     -0.31945770	      1.07311572	      0.34168262	     11.76796794	      0.02030541	     -2.58605971	    -15.36384413	     11.48007659	     -2.31976437	      5.24935782	     27.17291552	     -1.41430688	     -6.63082993	    -57.67208087	      9.68154838	      5.99727001	      4.16113316	    -11.51972663	      1.69249204	      4.10633578
      0.60400000	     -6.83313996	      3.04949688	      0.63729778	     -0.31440400	      1.07329721	      0.34200615	     11.39904118	      0.00079461	     -2.52234545	    -15.08666903	     11.54625057	     -2.24062255	      5.24716386	     27.51264628	     -1.38363009	     -6.77463585	    -56.63272775	      9.79785244	      5.96007804	      4.16148186	    -11.49863906	      1.59979668	      4.19608893
      0.60816667	     -6.86295555	      3.09117396	      0.52074443	     -0.30936920	      1.07343938	      0.34231347	     11.01397732	     -0.01443614	     -2.46313673	    -14.81346095	     11.64423393	     -2.16389393	      5.24464389	     27.82284893	     -1.35342421	     -6.90483638	    -55.55747704	      9.87958844	      5.88940881	      4.15875979	    -11.50224419	      1.50423180	      4.33576880
      0.61233333	     -6.90123583	      3.12341511	      0.41182869	     -0.30433013	      1.07353530	      0.34258449	     10.63738363	     -0.02335013	     -2.41015786	    -14.54076144	     11.73738215	     -2.09018052	      5.24175808	     28.12665522	     -1.32460702	     -7.01668794	    -54.44052550	      9.94226964	      5.80679905	      4.15349853	    -11.49635922	      1.42630159	      4.46386311
      0.61650000	     -6.93963227	      3.14796953	      0.30906042	     -0.29931035	      1.07356217	      0.34284568	     10.26449033	     -0.02530853	     -2.35909166	    -14.27434245	     11.83518062	     -2.01713920	      5.23865123	     28.42015157	     -1.29926770	     -7.11229996	    -53.29203864	      9.98514684	      5.70833480	      4.14621138	    -11.49322641	      1.35607083	      4.57494509
      0.62066667	     -7.00465292	      3.16543085	      0.21201964	     -0.29428861	      1.07349373	      0.34307583	      9.92376285	     -0.02274931	     -2.31164847	    -14.01716896	     11.93861822	     -1.95012112	      5.23506050	     28.72761798	     -1.27272893	     -7.19038707	    -52.10581321	     10.00425901	      5.59111555	      4.13652602	    -11.46031310	      1.29847726	      4.68185998
